<?xml version="1.0" standalone="no"?>
<!DOCTYPE svg PUBLIC "-//W3C//DTD SVG 20010904//EN"
 "http://www.w3.org/TR/2001/REC-SVG-20010904/DTD/svg10.dtd">
<svg version="1.0" xmlns="http://www.w3.org/2000/svg"
 width="2048.000000pt" height="2048.000000pt" viewBox="0 0 2048.000000 2048.000000"
 preserveAspectRatio="xMidYMid meet">

<g transform="translate(0.000000,2048.000000) scale(0.100000,-0.100000)"
fill="#000000" stroke="none">
<path d="M0 10240 l0 -10240 10240 0 10240 0 0 10240 0 10240 -10240 0 -10240
0 0 -10240z m5034 5304 c14 -14 16 -44 14 -222 l-3 -207 -45 0 -45 0 -3 199
c-2 166 0 203 13 222 18 28 47 31 69 8z m35 -515 c17 -6 31 -15 31 -21 0 -6
-7 -8 -15 -5 -8 4 -17 1 -21 -5 -4 -7 -3 -8 4 -4 6 4 16 -4 23 -16 9 -19 9
-21 -2 -10 -16 15 -43 16 -34 1 4 -6 -2 -5 -13 2 -12 7 -18 18 -14 24 3 5 -2
4 -11 -4 -14 -11 -17 -11 -18 0 0 10 -2 11 -6 1 -2 -6 -10 -9 -16 -5 -7 4 -7
1 1 -9 9 -11 10 -18 2 -23 -5 -3 -10 0 -10 7 0 10 -3 9 -11 -2 -8 -11 -9 -7
-5 17 6 36 -10 37 -32 3 -10 -17 -9 -18 6 -13 9 3 14 3 10 -2 -4 -4 -3 -13 2
-20 7 -8 3 -15 -15 -23 -14 -6 -25 -8 -25 -3 0 4 -11 6 -25 3 -14 -2 -25 -8
-25 -13 0 -5 7 -6 16 -2 12 4 15 2 12 -8 -3 -8 -14 -14 -26 -14 -23 0 -74 -43
-66 -56 3 -5 1 -9 -5 -9 -5 0 -12 -10 -15 -22 -4 -21 0 69 5 100 1 7 9 10 17
7 12 -4 12 -2 4 8 -16 18 21 59 46 51 12 -4 13 -3 4 3 -10 8 -10 12 3 23 8 7
18 10 22 6 3 -3 14 1 24 10 35 32 121 43 178 23z m65 -25 c24 -9 19 -24 -6
-23 -13 0 -17 3 -9 6 11 5 11 7 0 14 -16 10 -8 12 15 3z m-131 -55 c-9 -9 -12
-7 -10 9 1 14 5 18 11 12 7 -7 6 -14 -1 -21z m240 -138 c3 -13 1 -18 -9 -14
-7 2 -10 11 -7 19 7 19 10 18 16 -5z m-449 -37 c3 -8 2 -12 -4 -9 -6 3 -10 10
-10 16 0 14 7 11 14 -7z m556 -199 l0 -65 -350 0 -350 0 0 65 0 65 350 0 350
0 0 -65z m-110 -342 c0 -733 116 -2012 241 -2658 10 -55 19 -108 19 -117 0
-17 -15 -18 -175 -18 -133 0 -175 3 -175 13 0 6 -5 44 -11 82 -33 228 -66 654
-87 1100 l-7 150 -28 9 c-54 19 -58 5 -68 -265 -10 -267 -28 -525 -62 -864
l-22 -220 -177 -3 c-98 -1 -178 -1 -178 1 0 2 9 52 20 112 30 162 86 545 109
745 83 703 111 1077 133 1733 l12 377 228 0 228 0 0 -177z m11600 -2557 c0 -3
-4 -8 -10 -11 -5 -3 -10 -1 -10 4 0 6 5 11 10 11 6 0 10 -2 10 -4z m-301 -71
c91 -74 98 -93 55 -144 -14 -17 -29 -31 -34 -31 -4 0 -30 18 -56 40 -27 22
-52 39 -56 38 -7 -3 -181 -214 -532 -648 -349 -430 -322 -400 -361 -400 -36 0
-60 17 -70 51 -9 26 -10 23 210 294 150 184 236 291 574 709 151 187 150 187
270 91z m728 -22 c53 -63 66 -89 54 -111 -10 -16 -11 -15 -12 3 -1 11 -1 24 0
28 1 5 -3 6 -9 2 -6 -3 -8 -11 -5 -16 4 -5 1 -17 -4 -26 -10 -17 -11 -16 -12
2 -1 11 -1 29 0 40 0 11 -2 14 -5 7 -4 -9 -10 -7 -22 6 -10 10 -16 16 -15 14
1 -2 -2 -15 -7 -28 -12 -30 -2 -32 10 -1 6 16 9 17 9 5 1 -9 -6 -24 -15 -32
-12 -12 -12 -16 -2 -16 10 0 9 -3 -2 -10 -13 -9 -13 -10 0 -11 8 -1 19 -1 23
0 5 1 6 -3 2 -9 -3 -6 -10 -8 -15 -5 -4 3 -11 -11 -14 -30 -8 -41 -26 -47 -26
-9 0 15 -10 35 -22 46 -18 16 -20 23 -12 46 6 15 17 26 25 24 10 -2 9 2 -3 11
-10 8 -15 17 -11 20 3 4 -1 8 -10 8 -9 1 -22 2 -29 3 -6 0 -13 13 -15 29 -3
22 0 27 17 27 11 0 20 5 20 10 0 6 12 10 26 10 l25 0 -28 25 -28 26 37 -21
c20 -12 54 -42 75 -67z m-455 63 c7 4 8 2 4 -5 -4 -6 -15 -10 -24 -9 -10 2
-17 -5 -19 -17 l-3 -20 9 20 c8 18 9 19 16 2 8 -19 -31 -59 -52 -52 -6 2 -17
-2 -23 -10 -9 -11 -15 -12 -25 -2 -14 13 -11 27 6 27 6 0 7 -5 3 -12 -4 -7 -3
-8 5 -4 6 4 9 12 5 17 -7 12 14 39 30 39 6 0 2 -7 -8 -15 -11 -8 -15 -15 -8
-15 6 0 19 12 29 28 21 33 37 45 41 32 2 -6 9 -7 14 -4z m-7273 -31 c328 -42
560 -125 756 -273 l85 -63 0 -1444 0 -1444 38 -4 c32 -3 34 -5 15 -12 -20 -6
-35 -29 -15 -23 4 2 18 -5 31 -14 19 -13 21 -19 10 -23 -29 -11 -64 1 -61 21
2 15 1 16 -7 4 -5 -8 -7 -18 -5 -22 3 -4 -1 -8 -10 -8 -30 0 -46 13 -46 37 0
16 -4 22 -12 17 -7 -4 -8 -3 -4 5 4 6 3 18 -4 26 -7 9 -8 15 0 20 5 3 14 -4
19 -17 6 -13 10 -18 10 -11 1 7 8 10 19 6 9 -3 -3 7 -28 23 -72 47 -270 136
-286 130 -8 -3 -13 -2 -9 3 8 14 -84 45 -278 96 -425 109 -770 149 -1247 143
l-275 -3 3 -46 4 -46 281 5 c283 5 442 -3 677 -34 146 -19 351 -60 393 -79
l32 -14 -30 5 c-62 12 -150 15 -137 6 11 -7 11 -10 -3 -15 -9 -4 -13 -3 -10 2
10 17 -16 24 -41 10 -19 -10 -27 -10 -37 0 -9 10 -8 11 6 6 10 -4 17 -2 17 4
0 8 -59 11 -196 11 -107 0 -193 -3 -191 -7 3 -5 -56 -8 -131 -8 -155 -1 -392
-23 -392 -37 0 -5 -4 -7 -9 -3 -6 3 -58 -2 -117 -10 -58 -9 -108 -15 -110 -13
-2 2 -4 20 -6 41 -2 29 -7 38 -29 46 -16 6 -31 5 -40 -1 -11 -7 -9 -8 6 -4 19
6 19 5 2 -8 -24 -18 -73 -3 -80 25 -3 12 -14 19 -29 19 -29 0 -48 44 -48 113
0 26 -4 47 -8 47 -5 0 -9 -60 -10 -133 -1 -110 1 -134 13 -134 11 0 12 4 4 14
-9 10 -7 13 6 13 13 0 16 -7 12 -35 -3 -19 -1 -33 3 -30 5 3 11 -1 13 -7 3 -7
6 -3 6 10 1 12 6 22 12 22 8 0 9 -11 5 -32 -4 -23 -3 -28 3 -18 6 8 12 12 13
10 19 -24 38 -62 38 -73 0 -8 7 -20 15 -27 17 -14 20 -60 4 -60 -6 0 -8 -8 -4
-19 5 -16 -1 -20 -45 -26 -56 -8 -72 0 -96 46 -12 23 -14 106 -13 486 1 261 5
443 9 423 5 -19 6 -38 4 -42 -2 -3 1 -10 7 -14 7 -4 9 -3 5 4 -3 6 -1 14 6 18
7 4 10 4 6 -1 -4 -4 -2 -15 5 -23 8 -11 8 -14 0 -9 -6 4 -14 3 -17 -2 -3 -5 1
-12 9 -15 9 -3 18 1 21 8 3 8 14 12 26 8 18 -4 20 -2 16 16 -4 15 -2 22 8 22
23 0 0 -45 -25 -48 -20 -3 -21 -8 -16 -47 5 -28 2 -51 -6 -66 -7 -13 -12 -27
-11 -31 1 -5 -2 -8 -7 -8 -5 0 -7 -9 -4 -20 3 -11 14 -20 25 -20 14 0 18 -5
14 -17 -14 -48 -14 -72 0 -66 9 3 14 -2 14 -16 0 -19 5 -22 39 -20 24 2 37 7
35 14 -3 7 2 12 10 12 8 0 13 -4 10 -9 -3 -4 0 -8 5 -8 6 0 11 -12 12 -27 l1
-28 13 30 c7 17 11 33 8 38 -2 4 -2 7 2 7 3 0 10 -10 15 -22 6 -15 9 44 9 169
l1 192 -32 18 c-18 9 -36 16 -40 15 -5 -1 -8 3 -8 9 0 5 -4 7 -10 4 -5 -3 -10
-2 -10 3 0 5 -31 30 -68 55 -221 146 -542 427 -542 473 0 34 38 74 69 74 21 0
51 -21 121 -85 171 -158 321 -272 342 -259 6 4 8 3 5 -3 -6 -9 73 -66 160
-117 10 -5 13 195 14 956 1 530 4 1015 8 1078 l6 115 129 22 c163 27 358 51
506 63 158 12 499 4 649 -15z m2571 0 c141 -16 456 -63 478 -70 8 -3 12 -33
12 -105 0 -67 4 -100 11 -100 8 0 8 -4 0 -14 -8 -9 -11 -246 -10 -867 1 -470
4 -848 6 -841 3 6 11 12 20 12 9 0 4 -9 -14 -24 -40 -33 -393 -161 -696 -251
-80 -24 -89 -25 -109 -10 -51 35 -113 9 -145 -59 -7 -17 -25 -46 -38 -65 -46
-62 -27 -164 35 -196 88 -45 177 11 185 118 l3 41 228 71 c126 40 285 93 354
119 69 26 147 51 173 56 27 6 86 27 132 49 46 21 86 36 89 33 3 -3 6 -1 6 5 0
6 7 13 15 17 11 4 15 -2 15 -22 0 -19 -3 -23 -9 -13 -7 10 -13 11 -27 2 -18
-10 -18 -10 -1 -11 15 0 17 -6 13 -37 l-6 -38 10 33 c6 17 13 32 16 32 3 0 4
-47 3 -105 -1 -58 -5 -102 -9 -100 -5 3 -11 -5 -13 -17 -4 -21 -4 -20 -6 4 0
14 5 28 12 31 6 2 8 8 4 13 -5 5 -15 1 -23 -10 -8 -11 -14 -14 -14 -7 0 7 -4
10 -9 7 -5 -3 -27 14 -49 38 -29 32 -40 51 -37 67 2 12 0 29 -5 38 -6 10 -10
11 -10 4 0 -7 -10 -13 -21 -13 -12 0 -28 -8 -36 -17 -10 -13 -16 -15 -19 -5
-8 17 -21 15 -21 -3 0 -8 3 -13 5 -10 3 3 12 -4 20 -16 8 -11 11 -23 8 -26 -3
-3 -8 2 -12 11 -18 46 -22 -9 -22 -281 0 -164 4 -282 8 -263 6 28 8 30 9 10 1
-20 3 -22 11 -10 6 10 10 11 10 3 0 -7 18 -16 40 -19 39 -6 40 -8 40 -45 0
-32 -3 -39 -20 -39 -15 0 -21 -9 -26 -40 -6 -38 -13 -45 -43 -40 -10 1 -12 -6
-7 -24 3 -13 2 -27 -2 -30 -4 -2 -9 9 -10 27 -5 58 -12 41 -12 -28 l0 -68 -37
7 c-190 34 -469 66 -567 66 -57 0 -58 -6 -3 -13 21 -3 41 -8 45 -12 4 -5 -8
-5 -25 -2 -23 5 -33 3 -34 -6 0 -9 -2 -8 -6 1 -4 10 -10 9 -26 -5 -11 -10 -18
-13 -14 -7 3 6 0 11 -8 11 -8 0 -12 -4 -9 -9 7 -11 -58 -10 -76 2 -11 8 -8 9
14 6 16 -3 25 -2 21 2 -3 4 -10 7 -13 8 -4 0 -25 5 -47 10 l-40 9 50 6 c69 8
-314 10 -452 2 -62 -3 -110 -10 -107 -14 2 -4 -4 -8 -13 -7 -10 0 -29 -3 -42
-6 -40 -9 -10 9 44 27 67 22 223 51 430 79 152 20 209 23 543 23 245 0 372 3
373 10 0 5 2 20 3 32 5 47 5 47 -318 51 -236 3 -344 0 -473 -12 -510 -51 -842
-138 -1226 -319 -82 -38 -104 -53 -92 -59 9 -5 12 -14 8 -21 -4 -7 -8 -16 -8
-21 0 -5 -7 -11 -15 -13 -13 -4 -13 -3 0 7 12 9 10 10 -12 6 -29 -7 -39 8 -13
18 13 5 15 181 15 1453 l0 1447 28 23 c220 186 530 297 929 333 135 12 520 4
683 -15z m5010 -215 c0 -29 -4 -40 -15 -40 -11 0 -15 11 -15 40 0 29 4 40 15
40 11 0 15 -11 15 -40z m-82 -72 l-3 -33 -27 29 c-16 16 -28 32 -28 36 0 4 12
20 28 36 l27 29 3 -32 c2 -18 2 -48 0 -65z m-158 17 c0 -8 -2 -15 -4 -15 -2 0
-6 7 -10 15 -3 8 -1 15 4 15 6 0 10 -7 10 -15z m80 -15 c0 -35 -20 -32 -45 6
-15 24 -15 24 15 24 27 0 30 -3 30 -30z m303 23 c-7 -2 -19 -2 -25 0 -7 3 -2
5 12 5 14 0 19 -2 13 -5z m-11558 -87 l0 -74 -60 -4 c-33 -2 -348 -3 -700 -3
l-640 0 -3 78 -3 77 703 0 703 0 0 -74z m2355 54 c0 -5 -2 -10 -4 -10 -3 0 -8
5 -11 10 -3 6 -1 10 4 10 6 0 11 -4 11 -10z m-14 -22 c5 -7 3 -8 -6 -3 -10 6
-12 4 -7 -8 4 -10 2 -16 -6 -14 -7 1 -11 -5 -9 -14 1 -9 -5 -16 -13 -16 -13 0
-13 3 0 24 9 13 12 23 8 23 -5 0 -1 5 7 10 19 12 17 12 26 -2z m4781 4 c21
-13 30 -55 26 -117 -5 -66 -10 -77 -23 -55 -6 10 -8 2 -5 -25 2 -22 2 -31 -1
-20 -3 11 -10 24 -15 30 -5 5 -9 23 -9 41 0 17 -7 37 -15 44 -11 9 -12 15 -2
25 7 7 15 11 20 8 4 -2 7 1 7 7 0 7 -8 9 -20 5 -16 -5 -20 -2 -18 17 2 21 5
23 25 14 13 -6 23 -14 23 -18 0 -5 5 -8 12 -8 6 0 2 10 -10 23 -30 32 -27 50
5 29z m3630 -34 c-29 -21 -37 -44 -13 -35 8 3 17 -1 20 -8 4 -11 0 -12 -20 -4
-28 10 -48 4 -38 -12 3 -5 0 -8 -7 -7 -7 2 -13 -2 -14 -9 0 -6 -3 -14 -7 -18
-3 -4 -6 0 -4 8 3 22 88 117 99 110 6 -3 -2 -15 -16 -25z m61 -14 l27 -26 -28
18 c-24 15 -30 15 -38 3 -7 -12 -9 -11 -9 2 0 15 8 29 17 29 2 0 16 -12 31
-26z m252 -19 c16 19 31 19 74 -2 29 -14 35 -20 30 -40 -6 -22 1 -28 32 -24 6
1 17 -6 24 -14 10 -12 10 -15 -4 -15 -11 0 -14 5 -10 12 4 7 3 8 -5 4 -21 -14
7 -38 30 -25 20 10 28 -4 8 -16 -6 -4 -8 -14 -4 -23 4 -12 1 -11 -16 4 l-22
19 13 -24 12 -23 -26 18 c-14 11 -23 25 -21 32 3 7 0 10 -6 7 -14 -9 -159 111
-159 131 1 5 9 -1 19 -13 16 -20 21 -21 31 -8z m-267 -2 c-7 -2 -13 -12 -13
-20 0 -9 -3 -14 -6 -10 -10 10 4 37 18 36 10 0 10 -2 1 -6z m-8506 -90 c-2
-16 -4 -5 -4 22 0 28 2 40 4 28 2 -13 2 -35 0 -50z m9328 58 c3 -5 2 -12 -3
-15 -5 -3 -9 1 -9 9 0 17 3 19 12 6z m-415 -11 c0 -5 -4 -10 -9 -10 -6 0 -13
5 -16 10 -3 6 1 10 9 10 9 0 16 -4 16 -10z m390 -9 c0 -6 -4 -13 -10 -16 -5
-3 -10 1 -10 9 0 9 5 16 10 16 6 0 10 -4 10 -9z m-33 -7 c-3 -3 -12 -4 -19 -1
-8 3 -5 6 6 6 11 1 17 -2 13 -5z m-652 -14 c3 -6 -1 -7 -9 -4 -18 7 -21 14 -7
14 6 0 13 -4 16 -10z m665 -59 c-24 -34 -48 -61 -54 -60 -7 0 -6 3 2 6 6 2 12
16 12 29 0 15 4 23 10 19 6 -4 9 -1 8 7 -2 7 3 12 10 11 6 -2 12 2 12 9 0 12
32 48 39 42 2 -1 -16 -30 -39 -63z m-936 35 c-13 -10 -14 -15 -4 -21 9 -5 11
-4 6 4 -6 8 0 11 20 8 16 -2 28 -10 30 -20 1 -10 -2 -14 -8 -11 -5 3 -4 -4 4
-15 11 -18 11 -23 -2 -31 -8 -5 -15 -15 -15 -22 -1 -7 -5 -26 -9 -41 -12 -41
-42 -32 -39 12 l1 33 -26 -24 -27 -23 24 27 c13 15 29 24 35 22 7 -3 19 3 27
13 7 10 9 15 5 11 -5 -4 -15 0 -22 10 -8 10 -13 12 -14 5 0 -7 -7 -10 -15 -7
-8 3 -24 -1 -37 -10 -18 -13 -19 -16 -5 -16 19 0 23 -25 7 -35 -8 -5 -8 -11 0
-20 8 -10 8 -15 -1 -21 -8 -4 -9 -3 -5 4 4 7 2 12 -5 12 -11 0 -10 -7 6 -80 2
-11 -5 -16 -22 -18 -14 -1 -21 2 -18 8 3 6 1 10 -5 10 -6 0 -9 4 -6 9 3 4 0
22 -6 39 l-12 30 -34 -36 c-23 -25 -19 -17 13 26 27 34 49 62 51 62 1 0 2 -9
1 -20 -1 -11 -7 -20 -15 -20 -7 0 -10 -5 -7 -10 10 -17 30 5 33 36 2 29 91
146 105 137 4 -3 0 -11 -9 -17z m46 20 c0 -3 -4 -8 -10 -11 -5 -3 -10 -1 -10
4 0 6 5 11 10 11 6 0 10 -2 10 -4z m392 -120 c42 -35 56 -53 53 -68 -6 -30
-13 -34 -32 -15 -10 9 -12 17 -6 17 6 0 14 -6 16 -12 4 -8 6 -7 6 3 2 32 -55
60 -72 36 -5 -7 -7 -1 -4 15 2 15 1 25 -3 23 -4 -3 -17 4 -29 14 -14 13 -18
22 -11 26 8 5 7 12 -2 23 -12 16 -11 16 7 1 11 -8 46 -37 77 -63z m-11207 29
c38 -189 53 -258 91 -410 58 -232 151 -540 221 -730 30 -82 57 -159 60 -170 4
-20 1 -20 -238 -15 l-242 5 -34 100 c-54 160 -137 485 -177 690 -47 241 -49
250 -64 249 -7 -1 -97 -2 -201 -2 l-189 -2 -12 -72 c-38 -236 -118 -573 -192
-805 l-51 -163 -243 0 -243 0 36 98 c121 328 235 734 328 1164 l17 77 36 3
c21 2 275 3 565 3 520 0 528 0 532 -20z m2422 -132 c-2 -32 -3 -8 -3 52 0 61
1 87 3 58 2 -29 2 -78 0 -110z m8963 133 c0 -3 -4 -8 -10 -11 -5 -3 -10 -1
-10 4 0 6 5 11 10 11 6 0 10 -2 10 -4z m-640 -16 c0 -5 -7 -10 -16 -10 -8 0
-12 5 -9 10 3 6 10 10 16 10 5 0 9 -4 9 -10z m551 -87 c13 -15 12 -15 -8 -4
-24 12 -29 21 -14 21 5 0 15 -7 22 -17z m-124 1 c-3 -3 -12 -4 -19 -1 -8 3 -5
6 6 6 11 1 17 -2 13 -5z m377 -53 c-2 -3 -19 10 -37 28 l-32 34 37 -29 c20
-15 35 -30 32 -33z m-724 34 c0 -8 -2 -15 -4 -15 -2 0 -6 7 -10 15 -3 8 -1 15
4 15 6 0 10 -7 10 -15z m560 -56 c34 -28 59 -53 57 -55 -3 -3 -17 8 -33 23
-16 15 -45 40 -64 55 -19 15 -32 27 -28 28 4 0 35 -23 68 -51z m-759 8 c-10
-9 -11 -8 -5 6 3 10 9 15 12 12 3 -3 0 -11 -7 -18z m219 -8 c0 -6 -4 -7 -10
-4 -5 3 -10 11 -10 16 0 6 5 7 10 4 6 -3 10 -11 10 -16z m-8419 -539 c0 -265
-3 -485 -6 -488 -3 -3 -5 217 -5 488 0 271 2 491 5 488 3 -3 5 -222 6 -488z
m8399 465 c0 -8 -7 -15 -16 -15 -14 0 -14 3 -4 15 7 8 14 15 16 15 2 0 4 -7 4
-15z m640 1 c0 -2 -8 -10 -17 -17 -16 -13 -17 -12 -4 4 13 16 21 21 21 13z
m-320 -112 c0 -14 -3 -14 -15 -4 -8 7 -15 14 -15 16 0 2 7 4 15 4 8 0 15 -7
15 -16z m122 -54 c5 0 6 6 2 13 -4 6 2 4 13 -5 22 -20 38 -24 27 -6 -4 7 -3 8
5 4 7 -5 -3 -26 -34 -64 -66 -85 -127 -149 -121 -129 5 14 1 16 -19 11 -16 -4
-25 -2 -25 6 0 6 -4 9 -9 6 -5 -3 -12 1 -15 10 -3 8 -2 13 3 9 5 -3 8 10 7 27
-3 46 9 65 49 78 19 6 35 16 35 21 0 5 7 9 15 9 8 0 15 -5 15 -11 0 -5 5 -7
12 -3 8 5 8 9 1 11 -5 2 -8 16 -5 30 l5 27 15 -22 c8 -12 19 -22 24 -22z
m-927 -30 c-3 -5 -12 -10 -18 -10 -7 0 -6 4 3 10 19 12 23 12 15 0z m-33 -32
c-16 -16 -15 -28 2 -28 22 0 27 -15 16 -45 -14 -36 -37 -59 -43 -42 -3 6 -6 3
-6 -8 -1 -17 -3 -18 -12 -5 -9 12 -10 11 -6 -7 3 -13 1 -23 -5 -23 -6 0 -8 -7
-5 -14 4 -10 1 -13 -9 -9 -12 4 -14 0 -9 -23 5 -22 4 -25 -4 -14 -8 12 -12 9
-17 -17 -4 -18 -10 -33 -15 -33 -5 0 -9 -7 -9 -15 0 -8 -13 -16 -32 -19 -41
-6 -98 -3 -98 5 0 13 47 49 55 42 4 -5 5 -2 1 4 -9 16 53 95 67 86 6 -3 7 -1
3 6 -9 14 63 103 77 94 5 -3 7 -1 3 5 -6 10 39 72 52 72 3 0 1 -5 -6 -12z
m838 -158 c0 -5 -5 -10 -11 -10 -5 0 -7 5 -4 10 3 6 8 10 11 10 2 0 4 -4 4
-10z m-3860 -309 c0 -60 -10 -46 -15 20 -3 37 -1 49 5 39 5 -8 10 -35 10 -59z
m3550 -16 c-7 -8 -17 -15 -23 -15 -6 0 -2 7 9 15 25 19 30 19 14 0z m-77 -23
c-17 -13 -16 -14 5 -7 14 4 22 2 22 -5 0 -8 -10 -11 -24 -8 -20 4 -23 1 -22
-24 0 -15 5 -28 9 -28 5 0 7 6 4 14 -8 20 22 29 41 14 13 -11 14 -11 7 1 -5 9
-4 12 3 7 6 -3 14 -1 18 5 5 9 0 10 -14 7 -13 -4 -20 -2 -16 3 3 6 13 9 22 7
10 -2 25 6 35 17 15 16 15 14 -1 -10 -11 -16 -29 -39 -39 -50 -10 -11 -47 -56
-83 -100 -90 -111 -85 -107 -103 -87 -9 9 -17 33 -20 52 -4 34 -4 34 -5 -7 -2
-30 3 -45 14 -51 9 -5 15 -15 12 -22 -5 -16 -38 -23 -38 -8 0 6 8 7 18 4 15
-5 15 -4 2 6 -8 7 -17 22 -18 33 -5 26 -12 33 -12 12 0 -9 -4 -17 -10 -17 -15
0 -12 23 5 46 8 10 15 31 15 47 0 17 5 27 15 27 8 0 18 0 22 1 4 0 9 -5 12
-12 2 -7 -1 -9 -8 -5 -7 5 -9 1 -4 -10 5 -15 7 -15 15 0 5 9 6 21 3 26 -3 6 1
10 9 10 8 0 18 4 21 10 3 6 -1 7 -9 4 -9 -3 -16 -1 -16 5 0 6 5 11 10 11 6 0
10 17 10 39 0 33 3 39 25 43 20 4 25 1 25 -16 0 -16 -3 -17 -9 -7 -5 7 -11 9
-13 5 -3 -5 3 -17 14 -26 17 -17 24 -11 19 16 -1 4 3 14 9 20 5 7 8 15 5 17
-2 3 5 5 16 5 19 0 20 -1 2 -14z m-910 -56 c-15 -19 -32 -35 -37 -35 -6 -1 5
15 24 34 43 45 50 45 13 1z m37 -32 c0 -15 -1 -15 -37 -19 -18 -2 -21 1 -13
16 17 30 50 33 50 3z m-45 -26 c4 4 6 1 3 -7 -2 -8 -15 -21 -28 -30 -23 -15
-23 -15 -16 14 l7 30 -16 -23 c-10 -13 -15 -26 -12 -28 10 -10 42 -11 59 -3
27 14 32 -9 12 -48 -18 -33 -21 -34 -59 -30 -29 4 -35 3 -22 -4 35 -20 6 -79
-40 -79 -12 0 -23 -5 -23 -10 0 -6 -12 0 -27 14 -23 22 -51 27 -39 8 2 -4 -8
-16 -23 -27 -22 -16 -21 -12 10 25 20 24 42 46 50 48 9 3 8 0 -3 -9 -15 -13
-16 -15 0 -29 14 -13 15 -12 9 3 -3 9 -1 19 4 23 7 4 8 9 0 17 -7 7 9 33 51
83 50 61 63 72 78 64 9 -5 21 -6 25 -2z m45 -35 c0 -10 -4 -14 -8 -8 -4 6 -11
13 -16 18 -5 4 -2 7 7 7 10 0 17 -8 17 -17z m-7445 -143 c8 0 12 8 10 20 -3
16 2 20 26 20 27 0 29 -3 29 -35 0 -28 4 -35 20 -35 16 0 20 -7 20 -35 0 -49
-37 -125 -61 -125 -11 0 -24 -11 -31 -25 -24 -54 -33 -20 -34 131 -1 82 1 134
3 117 3 -19 10 -33 18 -33z m152 -27 c-2 -16 -4 -3 -4 27 0 30 2 43 4 28 2
-16 2 -40 0 -55z m4687 -28 c3 -8 1 -15 -4 -15 -6 0 -10 7 -10 15 0 8 2 15 4
15 2 0 6 -7 10 -15z m-59 -34 c3 -5 0 -13 -6 -17 -8 -4 -9 -3 -5 4 4 7 3 12
-1 12 -5 0 -14 -9 -21 -20 -7 -11 -18 -20 -25 -19 -9 0 -9 2 1 6 6 2 9 10 6
15 -4 6 -2 8 3 5 6 -4 13 0 17 8 6 17 22 20 31 6z m-6575 -166 l0 -93 -142 -6
c-79 -3 -626 -5 -1215 -4 l-1073 2 0 98 0 98 1208 2 c664 2 1210 2 1215 0 4
-2 7 -45 7 -97z m9540 80 c0 -8 7 -15 15 -15 11 0 15 -11 15 -39 0 -33 3 -40
19 -38 15 1 22 11 26 39 4 21 10 38 15 38 11 0 20 -42 15 -68 -2 -12 0 -22 4
-22 5 0 12 -12 15 -26 6 -22 9 -24 23 -12 14 11 14 8 -1 -14 -21 -32 -28 -35
-24 -11 2 12 -5 18 -24 19 -23 2 -26 0 -22 -22 2 -13 0 -24 -6 -24 -5 0 -10
-8 -9 -17 0 -11 3 -13 6 -5 2 7 13 17 24 22 33 18 22 -12 -24 -65 -32 -36 -46
-45 -52 -35 -5 9 -4 11 3 6 7 -4 12 -5 12 -2 0 3 -10 10 -21 17 -12 6 -19 7
-16 2 3 -4 -1 -17 -9 -28 -8 -10 -14 -14 -14 -8 0 17 -38 55 -49 49 -5 -4 -13
-1 -17 5 -4 8 -3 9 4 5 8 -5 12 5 12 32 0 21 3 41 6 45 10 9 34 -4 34 -19 0
-17 1 -17 34 -4 23 8 26 15 26 55 0 25 -4 45 -10 45 -5 0 -10 -7 -10 -15 0
-11 -11 -15 -40 -15 l-40 0 0 70 0 70 40 0 c29 0 40 -4 40 -15z m-7710 -49 c0
-3 -4 -8 -10 -11 -5 -3 -10 -1 -10 4 0 6 5 11 10 11 6 0 10 -2 10 -4z m7911
-23 c13 -16 12 -17 -3 -4 -10 7 -18 15 -18 17 0 8 8 3 21 -13z m-1006 -82 c-3
-5 -1 -12 4 -15 5 -4 12 -2 16 4 12 20 26 10 15 -10 -8 -16 -15 -18 -29 -10
-20 10 -31 4 -31 -16 0 -7 8 -10 21 -7 19 5 20 4 10 -16 -7 -12 -16 -19 -22
-15 -6 3 -7 -4 -4 -19 4 -14 2 -28 -4 -32 -6 -3 -9 -10 -6 -15 7 -11 -36 0
-55 14 -13 10 -13 9 -1 -6 8 -11 9 -18 3 -18 -6 0 -9 -8 -6 -17 5 -14 4 -15
-4 -4 -6 8 -15 10 -22 6 -9 -5 -11 -4 -6 3 10 16 -6 15 -24 0 -20 -19 4 14 61
82 25 30 54 65 65 78 19 22 30 30 19 13z m-2248 -51 c-1 -10 -3 -17 -6 -15 -2
3 -11 -1 -20 -8 -14 -10 -14 -10 -4 4 7 9 9 20 5 24 -4 5 -1 5 6 1 6 -4 12 -2
12 3 0 6 2 11 4 11 3 0 4 -9 3 -20z m-46 -13 c-10 -9 -11 -8 -5 6 3 10 9 15
12 12 3 -3 0 -11 -7 -18z m45 -29 c4 -7 4 -10 -1 -6 -4 4 -15 2 -24 -5 -14
-11 -14 -10 -2 6 16 20 18 21 27 5z m2274 -2 c0 -2 -7 -7 -16 -10 -8 -3 -12
-2 -9 4 6 10 25 14 25 6z m-8826 -123 c81 -205 291 -629 411 -828 73 -122 211
-329 287 -432 37 -51 68 -94 68 -95 0 -2 -164 -3 -364 -3 l-365 0 -11 64 c-71
406 -442 745 -930 848 -116 24 -370 24 -492 0 -448 -89 -822 -415 -923 -803
-8 -32 -15 -69 -15 -81 l0 -23 -272 -2 c-150 -1 -307 -2 -348 -3 -130 -2 -128
-4 -58 84 82 103 227 324 334 506 104 178 290 549 365 727 l54 127 60 3 c33 2
533 4 1111 4 l1051 1 37 -94z m9616 62 c7 -9 8 -15 2 -15 -5 0 -12 7 -16 15
-3 8 -4 15 -2 15 2 0 9 -7 16 -15z m-870 -15 c0 -5 -4 -10 -10 -10 -5 0 -10 5
-10 10 0 6 5 10 10 10 6 0 10 -4 10 -10z m800 -11 c0 -5 6 -7 13 -3 8 5 8 2
-2 -9 -18 -23 -31 -21 -31 3 0 11 5 20 10 20 6 0 10 -5 10 -11z m-753 -5 c-3
-3 -12 -4 -19 -1 -8 3 -5 6 6 6 11 1 17 -2 13 -5z m801 -14 c-7 -10 -14 -17
-17 -15 -4 4 18 35 25 35 2 0 -1 -9 -8 -20z m-954 -5 c-4 -8 -10 -15 -16 -15
-5 0 -6 -5 -2 -12 4 -7 3 -8 -4 -4 -9 5 -8 12 1 26 14 23 29 27 21 5z m-6668
-14 c-4 -5 0 -12 6 -14 8 -3 6 -6 -4 -6 -18 -1 -24 10 -11 22 9 10 15 8 9 -2z
m7594 -15 c0 -2 -8 -10 -17 -17 -16 -13 -17 -12 -4 4 13 16 21 21 21 13z m-30
-40 c0 -2 -8 -10 -17 -17 -16 -13 -17 -12 -4 4 13 16 21 21 21 13z m-1010 -66
c0 -5 -5 -10 -11 -10 -5 0 -7 5 -4 10 3 6 8 10 11 10 2 0 4 -4 4 -10z m-49
-153 c14 -12 132 -111 263 -220 l237 -198 -318 -158 -318 -159 -35 32 c-19 17
-45 39 -58 48 l-23 16 85 258 c47 143 95 292 106 332 12 39 25 72 28 72 4 -1
19 -11 33 -23z m264 -67 c10 -11 16 -20 13 -20 -3 0 -13 9 -23 20 -10 11 -16
20 -13 20 3 0 13 -9 23 -20z m520 11 c3 -5 2 -12 -3 -15 -5 -3 -9 1 -9 9 0 17
3 19 12 6z m-16 -45 c9 -11 9 -16 0 -22 -7 -4 -9 -3 -5 4 3 6 -2 15 -11 21
-10 6 -13 11 -7 11 6 0 17 -6 23 -14z m-449 -2 c0 -8 -19 -13 -24 -6 -3 5 1 9
9 9 8 0 15 -2 15 -3z m33 -22 c3 7 6 3 6 -9 1 -28 -1 -28 -25 -1 -13 16 -14
19 -2 10 13 -10 17 -10 21 0z m83 -46 c-11 -18 -11 -23 2 -36 14 -12 15 -11
10 8 -5 18 -2 22 17 22 13 0 27 -5 31 -11 3 -6 17 -8 29 -5 13 3 27 1 30 -5 8
-13 -24 -39 -41 -32 -7 2 -15 0 -19 -6 -3 -6 0 -9 7 -6 9 4 14 -2 15 -15 1
-11 -1 -20 -4 -20 -13 0 -133 105 -124 108 6 2 9 8 5 13 -11 19 7 28 31 17 23
-10 24 -13 11 -32z m253 31 c-2 -1 -12 -9 -21 -16 -15 -12 -18 -11 -18 3 0 10
8 16 22 16 12 0 19 -1 17 -3z m51 -10 c0 -22 -35 -48 -55 -41 -15 6 -16 4 -6
-14 7 -14 8 -23 1 -27 -5 -3 -10 1 -10 10 0 9 -4 13 -10 10 -17 -11 -11 11 10
35 13 15 26 21 41 17 15 -4 19 -2 15 9 -3 8 -1 14 4 14 6 0 10 -6 10 -13z
m-2553 -159 c-2 -13 -4 -3 -4 22 0 25 2 35 4 23 2 -13 2 -33 0 -45z m42 -115
c0 -118 -4 -162 -15 -177 -8 -11 -14 -16 -15 -11 0 6 -7 -3 -14 -20 -9 -19
-14 -24 -15 -12 0 9 9 26 19 36 17 17 18 22 6 38 -14 17 -14 17 -15 -4 0 -28
-11 -29 -34 -4 -17 18 -17 20 3 40 12 12 21 30 21 40 0 14 6 19 20 16 11 -2
23 1 26 7 4 7 2 8 -4 4 -8 -5 -12 2 -11 21 0 25 1 26 9 8 6 -13 9 14 9 78 1
53 3 97 6 97 3 0 5 -71 4 -157z m2402 134 c-10 -9 -11 -8 -5 6 3 10 9 15 12
12 3 -3 0 -11 -7 -18z m-74 -13 c9 -8 24 -13 34 -11 16 4 17 2 8 -15 -10 -19
-12 -19 -40 8 -16 15 -29 29 -29 31 0 8 13 2 27 -13z m-3727 -86 c0 -5 -4 -7
-9 -4 -5 3 -12 -1 -15 -9 -3 -8 -11 -14 -18 -13 -6 2 -14 -8 -17 -22 -4 -17
-13 -25 -28 -26 -13 0 -23 5 -23 12 0 16 -35 28 -51 18 -8 -4 -9 -3 -5 5 4 6
3 18 -3 25 -8 9 -2 12 29 13 22 0 38 -2 36 -6 -3 -4 4 -7 14 -7 10 0 17 3 14
7 -4 8 14 13 53 15 13 1 23 -2 23 -8z m-2471 -14 c3 -4 -21 -4 -54 0 -40 4
-55 3 -45 -4 11 -7 7 -8 -15 -5 -42 5 -43 6 -15 15 28 10 118 5 129 -6z m666
6 c3 -6 -1 -7 -9 -4 -18 7 -21 14 -7 14 6 0 13 -4 16 -10z m80 -20 c3 -6 -1
-7 -9 -4 -18 7 -21 14 -7 14 6 0 13 -4 16 -10z m-775 -9 c0 -5 -9 -7 -20 -4
-11 3 -20 7 -20 9 0 2 9 4 20 4 11 0 20 -4 20 -9z m-440 -13 c0 -4 8 -5 18 -2
14 5 14 4 2 -4 -8 -6 -18 -8 -22 -6 -4 3 -5 -2 -2 -10 3 -9 10 -13 15 -10 5 3
12 -2 15 -10 3 -9 13 -16 21 -16 8 0 11 5 7 12 -4 7 -3 8 5 4 6 -4 9 -11 6
-16 -3 -4 2 -13 9 -19 11 -9 16 -9 22 0 4 8 3 9 -4 5 -7 -4 -12 -1 -12 7 0 7
7 14 15 14 8 0 15 -5 15 -11 0 -6 9 -17 21 -24 17 -11 20 -11 14 0 -3 7 0 5 9
-6 8 -10 22 -16 31 -13 9 4 15 1 15 -8 0 -7 -8 -16 -17 -18 -10 -3 -3 -5 15
-6 22 -1 31 -5 26 -13 -4 -6 -3 -8 4 -4 6 3 9 15 7 25 -2 14 4 20 21 24 16 3
23 0 21 -7 -3 -6 -9 -10 -14 -9 -5 1 -10 -4 -10 -10 0 -8 20 -13 56 -14 44 -1
50 0 26 7 -18 4 13 6 75 3 118 -5 147 -13 49 -13 -35 0 -127 -7 -204 -15 -77
-8 -169 -13 -205 -10 -48 3 -57 2 -35 -5 l30 -9 -29 2 c-34 2 -46 23 -19 31
10 3 1 4 -19 3 -21 -2 -38 1 -38 5 0 4 5 8 10 8 6 0 10 7 10 15 0 8 -6 15 -14
15 -7 0 -16 9 -19 20 -5 18 3 25 26 21 12 -2 8 16 -5 26 -7 5 -24 10 -37 11
-13 0 -29 6 -35 12 -12 12 53 2 68 -11 11 -9 36 0 36 13 0 7 -4 7 -12 1 -13
-9 -63 8 -53 18 7 8 85 6 85 -3z m2341 -19 c19 -16 20 -18 4 -10 -34 17 -51
31 -39 31 7 0 22 -9 35 -21z m1107 14 c-21 -2 -57 -2 -80 0 -24 2 -7 4 37 4
44 0 63 -2 43 -4z m-1022 -30 c-1 -12 9 -19 36 -23 20 -4 35 -4 33 0 -2 4 8 5
23 2 15 -3 21 -7 15 -9 -20 -7 -15 -23 5 -23 20 0 27 -29 8 -31 -6 0 -2 -4 9
-9 13 -6 -8 -9 -65 -9 -48 -1 -91 4 -96 9 -12 12 -44 3 -44 -11 0 -5 -10 -9
-22 -9 -19 0 -20 2 -8 10 8 5 11 10 5 10 -5 0 -3 5 5 10 9 6 10 10 3 10 -6 0
-15 -4 -18 -10 -7 -12 -45 -14 -45 -2 1 13 27 42 33 36 3 -3 4 2 2 13 -1 10
-8 17 -15 15 -6 -1 -9 1 -6 6 3 5 24 7 46 5 25 -3 40 0 40 7 0 7 8 9 20 5 11
-4 20 -2 20 4 0 6 4 11 9 11 5 0 8 -8 7 -17z m533 3 c5 -4 12 0 14 6 3 7 6 4
6 -7 1 -17 3 -17 11 -5 8 12 10 9 10 -13 0 -28 -1 -29 -52 -25 -45 3 -115 27
-82 28 5 0 16 -6 23 -12 11 -11 13 -9 8 10 -5 20 -3 22 11 10 13 -11 15 -11 9
4 -4 13 -1 16 14 13 10 -2 23 -6 28 -9z m-1565 -47 c-3 -5 -10 -7 -15 -3 -5 3
-7 10 -3 15 3 5 10 7 15 3 5 -3 7 -10 3 -15z m1601 -19 c-3 -5 -27 -9 -53 -8
l-47 1 50 7 c28 4 51 8 53 8 2 1 0 -2 -3 -8z m-1580 -20 c4 -6 -1 -7 -11 -3
-12 4 -15 3 -10 -5 5 -9 -10 -12 -55 -12 -34 0 -60 3 -56 6 3 4 23 6 44 6 22
0 45 3 53 9 19 11 27 11 35 -1z m2035 6 c0 -30 -15 -36 -89 -34 l-76 2 68 3
c55 3 68 7 63 18 -4 10 1 15 14 15 11 0 20 -2 20 -4z m193 -11 c-3 -13 -30
-18 -51 -9 -9 4 -23 8 -30 10 -37 7 -20 15 28 12 30 -2 54 -7 53 -13z m-364
-11 c7 -7 -221 -2 -294 6 -42 5 2 6 110 3 99 -3 182 -7 184 -9z m-2641 -1
c-10 -2 -28 -2 -40 0 -13 2 -5 4 17 4 22 1 32 -1 23 -4z m2929 1 c12 -3 20
-11 17 -18 -3 -8 -23 -10 -64 -6 -77 7 -90 20 -14 14 42 -3 53 -2 39 5 -23 11
-11 14 22 5z m-1787 -19 c-10 -12 -9 -16 4 -21 20 -8 21 -21 1 -21 -8 0 -15 4
-15 9 0 5 -4 6 -10 3 -5 -3 -10 -4 -10 0 0 11 25 45 34 45 4 0 3 -7 -4 -15z
m1853 -12 c-7 -2 -21 -2 -30 0 -10 3 -4 5 12 5 17 0 24 -2 18 -5z m95 -10
c-10 -2 -26 -2 -35 0 -10 3 -2 5 17 5 19 0 27 -2 18 -5z m-3771 -19 c-3 -3
-12 -4 -19 -1 -8 3 -5 6 6 6 11 1 17 -2 13 -5z m4363 -18 c0 -7 -8 -20 -17
-27 -15 -11 -16 -11 -6 0 6 7 9 20 6 27 -3 8 0 14 6 14 6 0 11 -6 11 -14z
m-4656 -10 c-21 -15 -30 -14 -19 3 3 6 14 11 23 11 13 0 13 -2 -4 -14z m4520
-1 c-4 -8 -2 -15 4 -15 5 0 12 7 16 15 3 8 13 14 23 14 17 -1 17 -2 0 -6 -9
-2 -15 -8 -12 -13 9 -14 -27 -20 -65 -11 -23 6 -27 9 -13 10 12 1 25 6 28 11
10 16 25 12 19 -5z m-2317 -21 c-3 -3 -12 -4 -19 -1 -8 3 -5 6 6 6 11 1 17 -2
13 -5z m-150 -41 c-3 -3 -11 -2 -17 2 -9 6 -9 10 1 16 14 8 27 -7 16 -18z
m398 -13 c-3 -5 -11 -7 -19 -4 -7 3 -13 -1 -13 -9 0 -9 8 -13 21 -10 17 3 16
1 -3 -7 -20 -9 -27 -8 -34 5 -6 12 -18 14 -45 10 -26 -4 -31 -3 -17 4 l20 8
-20 6 c-11 3 -4 3 15 1 19 -3 46 -1 60 4 27 10 44 6 35 -8z m-415 0 c13 -9 13
-10 0 -11 -8 0 1 -7 20 -14 19 -7 29 -14 23 -14 -7 -1 -31 6 -54 15 -29 12
-37 19 -27 25 17 11 20 11 38 -1z m480 6 c0 -2 -7 -7 -16 -10 -8 -3 -12 -2 -9
4 6 10 25 14 25 6z m3671 -42 l28 -27 -46 -53 c-26 -30 -54 -54 -63 -54 -19 0
-40 19 -40 37 0 15 77 123 87 123 4 0 19 -12 34 -26z m-3798 -11 c-7 -2 -19
-2 -25 0 -7 3 -2 5 12 5 14 0 19 -2 13 -5z m-46 -9 c-3 -3 -12 -4 -19 -1 -8 3
-5 6 6 6 11 1 17 -2 13 -5z m-559 -4335 l3 -76 39 19 c47 24 88 18 123 -18 31
-30 37 -62 37 -180 0 -93 0 -94 -24 -94 -24 0 -24 2 -32 111 -5 89 -11 116
-25 130 -26 26 -62 24 -96 -5 -27 -23 -28 -28 -30 -128 -2 -102 -2 -103 -27
-106 l-26 -3 0 209 c0 115 3 212 7 216 4 4 16 6 28 4 18 -3 20 -11 23 -79z
m-1728 36 l0 -25 -105 0 -105 0 0 -71 0 -72 90 6 90 6 0 -25 c0 -24 -1 -24
-95 -24 l-95 0 0 -90 c0 -89 0 -90 -25 -90 l-25 0 0 205 0 205 135 0 135 0 0
-25z m2736 -4 c68 -42 67 -142 -2 -199 l-36 -30 41 -61 c58 -84 59 -91 23 -91
-25 0 -34 8 -66 60 -45 73 -78 100 -122 100 l-34 0 0 -80 0 -80 -30 0 -30 0 0
200 0 200 113 0 c93 0 117 -3 143 -19z m-2546 -102 l0 -31 29 31 c44 47 81 39
61 -13 -6 -16 -17 -26 -29 -26 -38 0 -51 -37 -51 -143 l0 -98 -27 3 -28 3 -3
153 -3 152 26 0 c21 0 25 -5 25 -31z m385 11 c46 -22 73 -62 77 -111 l3 -34
-117 -3 c-131 -3 -138 -7 -92 -61 21 -25 33 -31 66 -31 23 0 55 9 73 20 30 18
34 19 46 4 11 -14 10 -20 -14 -40 -55 -47 -146 -43 -203 9 -80 73 -59 203 39
248 53 24 71 24 122 -1z m430 4 c49 -23 65 -72 65 -195 l0 -100 -27 3 -28 3
-5 113 c-4 98 -8 116 -24 128 -30 22 -70 17 -97 -12 -22 -23 -24 -36 -27 -130
-4 -102 -4 -104 -28 -104 l-24 0 0 150 c0 141 1 150 19 150 10 0 22 -7 25 -16
5 -14 9 -13 34 5 33 25 73 26 117 5z m471 -16 c37 -25 42 -39 21 -57 -11 -8
-18 -6 -32 9 -24 26 -78 35 -116 20 -60 -25 -79 -115 -34 -168 42 -50 99 -49
167 0 14 10 20 10 30 0 11 -11 6 -20 -24 -48 -33 -29 -44 -34 -89 -34 -63 0
-116 24 -140 63 -89 147 77 311 217 215z m1704 4 c14 -10 36 -39 48 -65 31
-60 23 -115 -22 -164 -64 -70 -160 -73 -225 -8 -29 28 -35 42 -39 88 -6 72 23
127 82 157 48 25 116 21 156 -8z m455 -1 c42 -24 69 -75 69 -133 0 -155 -222
-207 -295 -68 -74 139 85 280 226 201z m273 12 c9 -15 12 -15 47 1 48 23 98
14 137 -24 28 -28 28 -30 28 -149 l0 -121 -25 0 -25 0 0 105 c0 99 -2 107 -25
130 -31 32 -69 32 -100 0 -23 -23 -25 -31 -25 -130 0 -104 0 -105 -24 -105
-13 0 -27 7 -30 16 -8 20 -8 242 0 272 7 26 29 29 42 5z m-3122 -1333 c21 -14
39 -36 49 -64 16 -42 16 -46 -3 -89 -16 -37 -27 -47 -65 -62 -58 -22 -89 -15
-135 31 -32 32 -34 38 -30 85 10 99 102 149 184 99z m1092 0 c68 -42 78 -137
21 -191 -74 -69 -185 -32 -205 68 -13 66 52 143 121 143 17 0 45 -9 63 -20z
m-538 -12 c0 -6 -6 -5 -15 2 -8 7 -15 14 -15 16 0 2 7 1 15 -2 8 -4 15 -11 15
-16z m960 -2 c0 -2 -8 -10 -17 -17 -16 -13 -17 -12 -4 4 13 16 21 21 21 13z
m-910 -75 c0 -4 -6 -8 -14 -8 -8 0 -14 7 -14 16 0 9 -3 27 -7 41 -6 21 -4 20
14 -8 12 -18 21 -36 21 -41z m-43 4 c0 -8 -4 -12 -9 -9 -5 3 -6 10 -3 15 9 13
12 11 12 -6z m-10 -47 c-3 -8 -6 -5 -6 6 -1 11 2 17 5 13 3 -3 4 -12 1 -19z
m47 0 c-9 -30 -61 -81 -74 -73 -5 3 -10 1 -10 -4 0 -6 -9 -11 -21 -11 -11 0
-17 5 -14 10 4 6 10 8 15 5 5 -3 11 -1 15 4 3 6 13 7 22 4 12 -5 15 -2 10 10
-3 9 -3 16 1 16 20 -3 33 2 27 11 -3 6 -2 10 4 10 5 0 13 9 16 20 3 11 9 20
11 20 3 0 2 -10 -2 -22z m881 12 c3 -5 1 -10 -4 -10 -6 0 -11 5 -11 10 0 6 2
10 4 10 3 0 8 -4 11 -10z m-1086 -23 c12 -15 12 -17 -3 -11 -9 3 -16 13 -16
22 0 8 1 13 3 11 1 -2 9 -12 16 -22z m156 -15 c-3 -3 -11 0 -18 7 -9 10 -8 11
6 5 10 -3 15 -9 12 -12z m950 0 c-3 -3 -11 0 -18 7 -9 10 -8 11 6 5 10 -3 15
-9 12 -12z m-1078 -9 c-4 -3 1 -16 10 -27 17 -20 17 -20 -2 -6 -11 8 -22 15
-24 17 -5 3 9 23 16 23 4 0 3 -3 0 -7z m1097 -24 c-6 -11 -24 -2 -24 11 0 5 7
7 15 4 8 -4 12 -10 9 -15z m58 -13 c-3 -5 2 -7 11 -3 10 3 17 2 17 -3 0 -11
-24 -13 -57 -4 -29 8 -23 19 10 19 14 0 23 -4 19 -9z"/>
<path d="M4900 14995 c0 -8 5 -15 10 -15 6 0 10 7 10 15 0 8 -4 15 -10 15 -5
0 -10 -7 -10 -15z"/>
<path d="M4863 14946 c-3 -6 -3 -8 2 -4 4 4 16 3 26 -2 10 -6 20 -6 23 -1 3 5
-6 11 -19 14 -14 2 -28 -1 -32 -7z"/>
<path d="M4808 14897 c-5 -26 -4 -27 12 -12 9 8 20 12 25 8 4 -5 5 -2 1 5 -4
7 -11 10 -16 7 -4 -3 -10 1 -12 7 -3 7 -7 0 -10 -15z"/>
<path d="M17202 11594 c-8 -8 -22 -12 -32 -9 -21 7 -36 -10 -19 -21 8 -4 9 -3
5 4 -4 7 -3 12 2 12 6 0 12 -7 16 -15 3 -8 10 -15 16 -15 5 0 10 7 10 15 0 8
4 15 9 15 5 0 11 7 15 15 7 19 -5 19 -22 -1z"/>
<path d="M17239 11577 c6 -8 8 -17 4 -21 -4 -4 0 -4 10 0 14 5 15 9 6 20 -6 8
-16 14 -21 14 -7 0 -6 -5 1 -13z"/>
<path d="M17205 11541 c-3 -5 -2 -12 3 -15 5 -3 9 1 9 9 0 17 -3 19 -12 6z"/>
<path d="M8637 10846 c-20 -20 -20 -21 -7 -47 10 -17 22 -19 128 -19 415 0
820 -71 1137 -198 55 -22 105 -37 113 -35 22 9 34 41 22 62 -19 37 -290 130
-527 181 -200 43 -361 61 -608 67 -218 5 -242 4 -258 -11z"/>
<path d="M8637 10410 c-11 -16 -13 -28 -7 -41 11 -20 45 -34 59 -24 5 3 106 1
224 -4 339 -16 595 -62 867 -155 85 -29 169 -59 187 -67 38 -15 63 -1 63 37 0
31 -24 45 -141 88 -322 116 -635 173 -1020 183 l-216 6 -16 -23z"/>
<path d="M8637 9986 c-21 -21 -21 -27 -4 -51 12 -16 33 -18 193 -21 411 -8
776 -79 1073 -207 103 -44 126 -43 126 9 0 24 -8 33 -50 56 -78 43 -335 123
-500 157 -232 47 -361 62 -600 68 -200 5 -223 4 -238 -11z"/>
<path d="M8643 9559 c-19 -20 -16 -57 6 -69 11 -5 85 -10 169 -10 371 0 753
-77 1096 -220 88 -37 111 -34 111 16 0 24 -7 32 -45 51 -183 89 -517 180 -807
218 -167 23 -514 32 -530 14z"/>
<path d="M8848 9129 c-67 -35 -91 -123 -52 -191 52 -89 202 -91 260 -3 24 37
15 127 -17 161 -50 55 -126 68 -191 33z"/>
<path d="M8145 8691 c-3 -5 -2 -12 3 -15 5 -3 9 1 9 9 0 17 -3 19 -12 6z"/>
<path d="M8128 8658 c-7 -17 15 -19 29 -3 4 4 3 5 -4 2 -6 -4 -13 -2 -15 5 -3
8 -6 6 -10 -4z"/>
<path d="M8101 8403 c-10 -11 -10 -18 -2 -26 14 -14 23 -4 19 21 -3 18 -5 18
-17 5z"/>
<path d="M10345 8360 c-3 -5 -1 -10 4 -10 6 0 11 5 11 10 0 6 -2 10 -4 10 -3
0 -8 -4 -11 -10z"/>
<path d="M10345 8330 c4 -6 11 -8 16 -5 14 9 11 15 -7 15 -8 0 -12 -5 -9 -10z"/>
<path d="M11535 11170 c-44 -4 -108 -11 -142 -15 l-63 -7 0 -580 0 -580 23 5
c124 32 226 41 457 41 135 1 280 -3 323 -7 l77 -9 0 569 0 569 -167 12 c-179
13 -377 14 -508 2z"/>
<path d="M10962 11065 c-155 -56 -185 -82 -143 -124 l21 -21 52 21 c29 11 88
33 132 49 97 35 114 50 98 85 -16 34 -45 32 -160 -10z"/>
<path d="M10951 10630 c-123 -47 -151 -64 -151 -90 0 -19 25 -50 41 -50 5 0
48 16 96 36 49 20 109 43 135 50 51 16 67 39 48 74 -16 29 -50 25 -169 -20z"/>
<path d="M10948 10271 c-145 -57 -164 -73 -138 -122 15 -26 41 -24 108 10 31
15 87 38 125 50 73 25 95 47 77 81 -16 29 -59 24 -172 -19z"/>
<path d="M10985 9926 c-162 -59 -197 -85 -175 -127 12 -22 50 -25 83 -7 12 6
69 28 127 49 86 30 106 41 108 59 4 23 -23 60 -42 60 -6 -1 -51 -16 -101 -34z"/>
<path d="M11860 9563 c-262 -19 -543 -74 -770 -149 -207 -69 -274 -101 -278
-132 -4 -28 14 -52 40 -52 10 0 37 9 59 20 71 37 253 99 390 135 247 64 496
95 765 95 73 0 139 3 148 6 19 7 21 55 4 72 -11 11 -232 15 -358 5z"/>
<path d="M12752 9459 c2 -6 7 -10 11 -10 4 1 15 1 25 1 14 0 15 2 2 10 -20 13
-43 13 -38 -1z"/>
<path d="M12628 8783 c7 -3 16 -2 19 1 4 3 -2 6 -13 5 -11 0 -14 -3 -6 -6z"/>
<path d="M12625 8760 c3 -5 8 -10 11 -10 2 0 4 5 4 10 0 6 -5 10 -11 10 -5 0
-7 -4 -4 -10z"/>
<path d="M12617 8740 c9 -12 8 -19 -3 -34 -21 -29 -17 -41 14 -54 26 -12 27
-12 5 4 -21 15 -21 18 -8 44 13 25 13 29 -3 41 -15 12 -15 12 -5 -1z"/>
<path d="M16775 11229 c-4 -5 -4 -13 -1 -16 3 -4 6 0 7 8 0 8 4 6 9 -6 7 -16
9 -17 9 -3 1 21 -15 32 -24 17z"/>
<path d="M16845 11161 c-3 -5 -1 -12 5 -16 5 -3 10 1 10 9 0 18 -6 21 -15 7z"/>
<path d="M16710 11071 c0 -6 4 -13 10 -16 6 -3 7 1 4 9 -7 18 -14 21 -14 7z"/>
<path d="M16849 10645 c-1 -3 -3 -9 -4 -15 -1 -5 -3 -13 -4 -17 -2 -5 -7 1
-12 12 -8 19 -9 19 -6 1 2 -23 33 -30 41 -10 3 8 1 14 -5 14 -6 0 -7 5 -4 10
3 6 4 10 1 10 -3 0 -7 -2 -7 -5z"/>
<path d="M16715 10560 c-3 -5 -1 -10 4 -10 6 0 11 5 11 10 0 6 -2 10 -4 10 -3
0 -8 -4 -11 -10z"/>
<path d="M16790 10550 c0 -5 5 -10 11 -10 5 0 7 5 4 10 -3 6 -8 10 -11 10 -2
0 -4 -4 -4 -10z"/>
<path d="M16726 10528 c3 -5 9 -7 12 -4 3 3 12 0 21 -6 13 -10 14 -10 4 2 -15
16 -46 23 -37 8z"/>
<path d="M15777 10447 c-3 -8 1 -14 8 -14 7 0 11 6 8 14 -3 7 -6 13 -8 13 -2
0 -5 -6 -8 -13z"/>
<path d="M15709 10358 c-5 -18 -6 -38 -1 -34 7 8 12 36 6 36 -2 0 -4 -1 -5 -2z"/>
<path d="M15661 10316 c-7 -8 -8 -17 -3 -20 6 -3 15 1 21 8 7 8 8 17 3 20 -6
3 -15 -1 -21 -8z"/>
<path d="M16260 10023 c0 -5 5 -15 10 -23 7 -12 9 -10 7 8 -1 19 -17 33 -17
15z"/>
<path d="M15293 9863 c-10 -10 -14 -15 -8 -11 7 4 14 5 17 2 3 -2 8 2 11 11 8
19 4 19 -20 -2z"/>
<path d="M15336 9871 c-4 -5 1 -8 9 -7 21 3 31 16 12 16 -9 0 -18 -4 -21 -9z"/>
<path d="M15843 9545 c-3 -9 -3 -18 -1 -21 3 -3 8 4 11 16 6 23 -1 27 -10 5z"/>
<path d="M15783 9393 c4 -3 2 -12 -4 -19 -8 -9 -5 -15 10 -23 11 -6 22 -8 24
-4 7 13 -11 53 -24 53 -7 0 -9 -3 -6 -7z"/>
<path d="M14900 9390 c-9 -6 -10 -10 -3 -10 6 0 15 5 18 10 8 12 4 12 -15 0z"/>
<path d="M15033 8799 c-1 -10 2 -19 8 -19 11 0 12 27 1 34 -4 2 -9 -4 -9 -15z"/>
<path d="M15320 8790 c0 -5 4 -10 9 -10 6 0 13 5 16 10 3 6 -1 10 -9 10 -9 0
-16 -4 -16 -10z"/>
<path d="M8483 8465 c-10 -22 -9 -25 9 -25 10 0 27 -4 37 -9 10 -6 23 -6 32 0
10 6 7 9 -13 9 -22 0 -28 5 -28 22 0 21 0 21 -15 2 -14 -18 -14 -18 -8 4 7 29
1 28 -14 -3z"/>
<path d="M8533 8473 c0 -13 9 -19 26 -20 15 -1 19 1 11 4 -8 3 -20 12 -27 20
-10 13 -12 13 -10 -4z"/>
<path d="M8498 8393 c6 -2 18 -2 25 0 6 3 1 5 -13 5 -14 0 -19 -2 -12 -5z"/>
<path d="M11000 8410 c0 -5 9 -10 20 -10 11 0 20 5 20 10 0 6 -9 10 -20 10
-11 0 -20 -4 -20 -10z"/>
<path d="M10779 3804 c0 -27 -2 -57 -4 -68 -8 -42 4 -48 83 -44 63 3 77 7 93
27 26 31 25 83 -2 107 -15 14 -40 20 -95 22 l-74 4 -1 -48z"/>
<path d="M8695 3725 c-40 -39 -32 -45 55 -45 88 0 99 9 57 48 -32 30 -81 29
-112 -3z"/>
<path d="M11268 3721 c-29 -26 -33 -35 -33 -80 0 -67 35 -106 96 -106 102 0
138 154 48 201 -42 21 -75 17 -111 -15z"/>
<path d="M11731 3734 c-71 -50 -56 -164 27 -195 83 -32 163 71 121 154 -28 55
-100 74 -148 41z"/>
</g>
</svg>
